HIERARCHY
ROOT Hips
{
  OFFSET 0.0 0.0 0.0
  CHANNELS 6 XPOSITION YPOSITION ZPOSITION ZROTATION XROTATION YROTATION 
  JOINT LeftUpLeg
  {
    OFFSET 0.089458 -0.0866707 0.00101652
    CHANNELS 3 ZROTATION XROTATION YROTATION 
    JOINT LeftLeg
    {
      OFFSET 0.0 -0.444227 0.013727
      CHANNELS 3 ZROTATION XROTATION YROTATION 
      JOINT LeftFoot
      {
        OFFSET -0.00253549 -0.420924 -0.0146059
        CHANNELS 3 ZROTATION XROTATION YROTATION 
        End Site
        {
          OFFSET -0.0004 -0.0441509 0.084991
        }
      }
    }
  }
  JOINT Spine
  {
    OFFSET 0.0 0.118905 0.0
    CHANNELS 3 ZROTATION XROTATION YROTATION 
    JOINT Spine1
    {
      OFFSET 0.0 0.256574 0.00127663
      CHANNELS 3 ZROTATION XROTATION YROTATION 
      End Site
      {
        OFFSET -0.0029 0.2150836 0.02525291
      }
      JOINT RightArm
      {
        OFFSET -0.162727 -0.05365632 0.00102123
        CHANNELS 3 ZROTATION XROTATION YROTATION 
        JOINT RightForeArm
        {
          OFFSET -0.26364 0.00099144 -0.0142434
          CHANNELS 3 ZROTATION XROTATION YROTATION 
          End Site
          {
            OFFSET -0.220324 0.00085362 0.0102216
          }
        }
      }
      JOINT LeftArm
      {
        OFFSET 0.162727 -0.0536563199 0.00102123
        CHANNELS 3 ZROTATION XROTATION YROTATION 
        JOINT LeftForeArm
        {
          OFFSET 0.262597 0.00099144 -0.0142434
          CHANNELS 3 ZROTATION XROTATION YROTATION 
          End Site
          {
            OFFSET 0.220902 0.00085362 0.0102216
          }
        }
      }
    }
  }
  JOINT RightUpLeg
  {
    OFFSET -0.089458 -0.0866707 0.00101652
    CHANNELS 3 ZROTATION XROTATION YROTATION 
    JOINT RightLeg
    {
      OFFSET 0.0 -0.444227 0.013727
      CHANNELS 3 ZROTATION XROTATION YROTATION 
      JOINT RightFoot
      {
        OFFSET 0.00253549 -0.420924 -0.0146059
        CHANNELS 3 ZROTATION XROTATION YROTATION 
        End Site
        {
          OFFSET 0.0004 -0.0441509 0.084991
        }
      }
    }
  }
}
MOTION
Frames: 11
Frame Time: 0.033333
-36.441635 0.955009363165 -0.1604415 -5.44390025201 -5.26577019911 -96.9763987039 -13.7576001064 -19.6203997022 -3.98323014705 1.46190999773 38.9635995921 24.7774998841 1.55452875026 -14.4444328303 0.2446780534 -2.78987998584 16.0844005236 3.3315600908 -7.66086994668 -0.273481014491 4.00387994335 82.562670989 -18.4632734493 23.5570133813 13.1422999537 41.7038988079 -0.136369996164 -70.2621628221 -13.9218550569 8.82788289846 -6.25607975376 39.6423018295 -10.9149001333 -7.63860011489 -3.95332032179 6.00277023556 -3.6805498871 79.0044976012 -8.62200989782 11.3549666602 2.24190351368 -0.714070557794 
-36.493155 0.972249363165 -0.1604016 -5.72775992571 -4.32263974927 -95.8777969268 -13.111599961 -13.4019999677 -4.69229001404 1.39315998159 34.6805006617 24.9935012015 1.22130655238 -15.4653292527 0.228656163835 -1.96523005276 16.7486995997 2.35566010086 -6.61497033615 -0.824409969319 2.90282015197 82.3768830133 -19.9769628977 18.0715706381 15.463298979 47.0367978137 -5.95230026024 -73.1451856708 -4.34781326523 4.9845999124 -2.00516019243 29.326701277 -19.56579917 -6.23888987517 -11.5350002015 4.88645052092 -4.81697981309 80.739099273 -9.40869998736 10.0464304813 -1.95903336364 -0.307580653881 
-36.544749 0.985220363165 -0.1605453 -5.91435984006 -3.28384012039 -94.9015033472 -12.0045005748 -7.39318031896 -4.39312004443 1.31685993837 30.3777000506 24.5186988938 0.629993330349 -16.9820171542 0.187394577513 -1.21875995903 17.2866999402 1.62097998086 -5.22400999564 -1.34934004919 2.01918000947 80.6065048107 -21.4728545806 10.8836562867 15.6546996626 48.4280971023 -6.96459021741 -73.8621506279 -3.39007794995 1.73408673958 1.78960006255 27.4816998426 -28.5563003349 -4.86674969403 -18.4616990907 3.81587002182 -4.32053989299 78.8693008368 -12.1048001952 8.71549384321 -4.68782136278 -0.0975772030607 
-36.596409 0.993203363165 -0.161005 -5.88816990657 -2.49093007639 -94.0103002643 -10.9370999557 -1.62280001283 -3.28406999894 1.25884004269 25.8135012699 23.3250021005 1.26121065194 -17.6252416815 0.272305314819 -0.787003958081 17.4181998648 0.968222003532 -3.70975022646 -1.71455997579 1.25505003475 77.9019684654 -22.2956294133 2.85341163073 13.9207997927 46.1287992956 -4.2002798985 -73.7901877549 -8.61936746838 -1.34415348102 5.78849994422 30.8810986529 -38.7202980086 -4.00775009929 -24.1867995115 2.47415000914 -3.13620024539 73.1475967275 -15.7348997438 8.42591089788 -7.55860152424 0.0965012148127 
-36.648051 0.995834363165 -0.161977 -5.65287031655 -2.23906002055 -92.9856967567 -10.3114998777 3.58828000783 -1.8157701458 1.23262001368 21.671199859 21.483700921 2.33163320291 -18.1647053901 0.420063650908 -0.890775022141 17.081900133 0.317308977693 -2.51454011936 -1.8418298788 0.480446018307 74.9620296504 -22.2908551111 -5.3029230131 11.9078004641 42.7849982252 -0.0589927040472 -73.5794012869 -11.5129660112 -4.61891243801 9.08567045943 31.437499523 -48.3362993599 -4.21785013325 -28.3036994488 0.392873975163 -2.19409987345 63.4312974634 -17.5879010373 9.14834512903 -9.32193267924 0.247969964456 
-36.700944 0.993437363165 -0.1630861 -5.48961983076 -2.13197012489 -92.0946985795 -9.7036898812 8.59697981583 -0.077844999992 0.978203044343 18.2597986988 19.1634002826 2.01733180297 -19.7925051014 0.416615525955 -0.891482960577 16.63849962 -0.351741989012 -1.7185499802 -1.84510004531 -0.235417997753 72.3141702148 -21.3734548376 -12.6909721524 10.4242005603 40.0166986489 3.51560017831 -73.1162393291 -13.5500391953 -7.94412216043 11.7728000676 31.0161007569 -56.8564993117 -4.79015040315 -30.5663020642 -2.00607010169 -1.49501998006 50.9312999614 -17.0306002897 9.54283465738 -9.1693360079 0.256221766789 
-36.755121 0.985051363165 -0.16459449 -5.78924016597 -1.907250071 -91.5112023489 -8.98570978716 13.5851002639 1.65019995701 0.619319025337 16.3049985584 16.8538998808 0.600303565244 -21.9833309664 0.241772635002 -0.821467064921 16.4817006748 -0.989734004488 -0.780223981474 -1.54321998471 -0.962582081546 70.1686711928 -19.9575941887 -18.2629832745 9.85537984493 37.9270022723 5.14710974955 -72.7036139409 -15.7321096115 -10.8858359709 14.1173000663 30.2175013788 -64.2611995985 -4.81346994963 -30.8750983317 -4.334590019 -1.10154003905 37.8983018174 -15.6109984047 10.5537948621 -9.2793584026 0.318715089528 
-36.8111635 0.971073363165 -0.16723737 -6.48564027733 -1.7826500249 -90.7234971225 -8.48485969928 18.0646004301 2.98372993255 0.799998979947 16.7152999746 14.8461999252 -0.631018659138 -24.0866945514 0.041705378531 -1.42109001249 16.1903999369 -1.6378200257 0.815957983747 -0.637133972961 -1.9533700696 67.7741093226 -19.7938028373 -22.0597471228 10.2102995261 37.4818993347 4.60802042072 -72.6807396374 -18.082814837 -13.1319556322 15.5403998619 29.2238010621 -69.7701979566 -4.41161022029 -29.6111001088 -7.00705008838 -0.861846983211 27.40099945 -14.4586003502 12.4190025574 -10.2922566735 0.50981657879 
-36.86987573 0.956733363165 -0.17031285 -6.99337989164 -1.38295002272 -89.5500979438 -7.74549001408 21.7948006698 3.19872016852 1.39668990873 18.5194995665 13.7055002772 -2.67143362002 -25.6893813647 -0.365950783517 -1.75522991032 15.2270000469 -2.32146006303 2.69821991439 0.523250973918 -3.05287001653 64.8084685057 -20.9253739375 -25.1136117856 10.6867000981 37.9902976354 3.19412985451 -73.0046886795 -19.886708778 -13.9871926465 15.9343993242 28.4419988267 -72.8777018025 -3.31888005805 -28.0383995335 -8.99319994336 -0.51349602304 22.6142987192 -13.9464010493 11.9444162545 -9.63450774887 0.426312606988 
-36.9312201 0.945064363165 -0.172744413 -7.14285004389 -0.26228001118 -89.732798674 -5.9181198592 24.3544994386 2.49053990183 1.31863002458 21.9801993246 13.7291002884 -7.1610016985 -25.6418654462 -1.23761629706 -0.0688514017632 13.9798006743 -2.8985299394 3.71237984929 0.992001093684 -3.62134964935 61.5006693624 -22.8168223659 -27.8930992117 10.7358996582 38.0635992255 1.85343010133 -73.3811618764 -20.9624755251 -12.4517089183 16.3905005739 28.2454994069 -74.0790023039 -0.733201010524 -27.5237994211 -8.60431970787 -0.468694037509 24.816399519 -13.925000359 7.28891491995 -6.22189551074 -0.00415564900787 
-36.993702 0.935505363165 -0.17496174 -7.37149959098 2.23424004143 -89.9496025386 -2.98903997774 24.4176001413 3.75831031014 0.812602973482 30.1096014653 13.1980991842 -11.5317311022 -20.9705658842 -1.63018814308 3.37541993711 13.2406000363 -3.23042014367 3.54641009444 0.575886012487 -3.4218201869 58.815482943 -25.2164607741 -29.0595725786 10.4755004036 36.9554010327 0.48057200328 -73.7849489998 -21.5748873615 -8.80601092519 17.6408998902 28.8551996582 -73.5998030619 3.2422101174 -27.8603006433 -6.0783795759 -1.01269998196 31.6696030114 -14.0487002076 1.14466062411 -3.13880681633 -0.18613185963 
